# xmcd
#
# Track frame offsets: 
#        150
#        13078
#        29577
#        44493
#        59082
#        75594
#        90004
#        99880
#        113220
#        122826
#        140817
#        152449
#        164681
#        175049
#        185482
#        198659
#        211540
#        222241
#        235293
#        246607
#        257700
#        270936
#        283538
#
# Disc length: 3935 seconds
#
# Revision: 0
# Processed by: cddbd v1.5.2PL0 Copyright (c) Steve Scherf et al.
# Submitted via: ExactAudioCopy v1.1
#
DISCID=480f5d17
DTITLE=Various Artist - All-Time Country Favourites Through the Years
DTITLE=Disc 2
DYEAR=2012
DGENRE=Country
TTITLE0=Reba McEntire - Only you ( and you alone )
TTITLE1=Kenny Rogers - Love will turn you around
TTITLE2=Roseanne Cash - Seven year ache
TTITLE3=Ronnie Milsap - ( There's ) no gettin' over me
TTITLE4=Alan Jackson - Here in the real world
TTITLE5=Loretta Lynn - Country in my genes
TTITLE6=Johnny Paycheck - Mister Lovemaker
TTITLE7=Conway Twitty - How much more can she stand
TTITLE8=Tom T Hall - I love
TTITLE9=Dolly Parton - Starting over again
TTITLE10=Glen Campbell - Dreams of the everyday housewife
TTITLE11=Waylon Jennings - Don't think twice, it's alright
TTITLE12=Johnny Cash - Kate
TTITLE13=Skeeter Davis - I'm a lover ( not a fighter )
TTITLE14=Webb Pierce - That heart belongs to me
TTITLE15=Elvis Presley - Don't
TTITLE16=Porter Wagoner - Eat, drink and be merry ( tomorrow you'll cr
TTITLE16=y )
TTITLE17=Tammy Wynette - Reach out your hand
TTITLE18=Hank Snow - ( Now and then there's ) a fool such as I
TTITLE19=Hank Thompson - ( I've got a ) Humpty Dumpty heart
TTITLE20=Hank Williams - Wedding bells
TTITLE21=Bob Wills - Stay a little longer
TTITLE22=Patsy Cline - Lonely street
EXTD=
EXTT0=
EXTT1=
EXTT2=
EXTT3=
EXTT4=
EXTT5=
EXTT6=
EXTT7=
EXTT8=
EXTT9=
EXTT10=
EXTT11=
EXTT12=
EXTT13=
EXTT14=
EXTT15=
EXTT16=
EXTT17=
EXTT18=
EXTT19=
EXTT20=
EXTT21=
EXTT22=
PLAYORDER=
